<svg width="711.696" height="401.458" xmlns="http://www.w3.org/2000/svg">
 <defs>
  <style type="text/css">
   <![CDATA[
    .str1 {stroke:red;stroke-width:16.3031}
    .str0 {stroke:red;stroke-width:16.3037}
    .fil1 {fill:red}
    .fil0 {fill:red;fill-rule:nonzero}
   ]]>
  </style>
 </defs>
 <g>
  <title>background</title>
  <rect fill="none" id="canvas_background" height="602" width="802" y="-1" x="-1"/>
 </g>
 <g>
  <title>Layer 1</title>
  <g id="Capa_x0020_1">
   <metadata id="CorelCorpID_0Corel-Layer"/>
   <path d="m259.762,218.973c-10.7492,33.5975 -46.6959,52.117 -80.2928,41.3678c-33.5946,-10.7474 -52.117,-46.6953 -41.3678,-80.2928c10.7474,-33.594 46.6953,-52.117 80.2922,-41.3678c33.5946,10.748 52.1158,46.6988 41.3684,80.2928z" class="fil0 str0" id="logotype:circle"/>
   <g id="g22195">
    <path d="m202.505,201.11l126.703,-32.5231m-126.703,32.5231l0,0l0,0z" class="fil1 str0" id="path22197"/>
    <path d="m202.225,201.751l509.444,1.77969m-509.444,-1.77969l0,0l0,0z" class="fil1 str0" id="path22199"/>
   </g>
   <g id="logo:beam">
    <path d="m198.806,197.566l-28.181,-127.74m28.181,127.74l0,0l0,0z" class="fil1 str0" id="short_x0020_beam"/>
    <path d="m199.437,197.868l6.8825,-197.558m-6.8825,197.558l0,0l0,0z" class="fil1 str0" id="long_x0020_beam"/>
   </g>
   <g id="_53027072">
    <g id="svg_1">
     <path d="m197.356,198.696l-88.5056,-96.3221m88.5056,96.3221l0,0l0,0z" class="fil1 str0" id="_52994400"/>
     <path d="m198.053,198.641l-93.2393,-174.308m93.2393,174.308l0,0l0,0z" class="fil1 str0" id="_53016832"/>
    </g>
   </g>
   <g id="_51287528">
    <g id="svg_2">
     <path d="m196.67,200.439l-125.351,-37.4018m125.351,37.4018l0,0l0,0z" class="fil1 str0" id="_53041520"/>
     <path d="m197.24,200.034l-169.355,-101.957m169.355,101.957l0,0l0,0z" class="fil1 str0" id="_53055960"/>
    </g>
   </g>
   <g id="_53053992">
    <g id="svg_3">
     <path d="m197.425,204.876l-126.795,32.1655m126.795,-32.1655l0,0l0,0z" class="fil1 str1" id="_51235144"/>
     <path d="m197.706,204.234l-197.675,-0.69085m197.675,0.69085l0,0l0,0z" class="fil1 str1" id="_52531008"/>
    </g>
   </g>
   <g id="_52536464">
    <g id="svg_4">
     <path d="m198.17,203.728l-92.5883,92.4035m92.5883,-92.4035l0,0l0,0z" class="fil1 str0" id="_52879288"/>
     <path d="m198.084,203.032l-170.311,100.353m170.311,-100.353l0,0l0,0z" class="fil1 str0" id="_52536576"/>
    </g>
   </g>
   <g id="_52464856">
    <g id="svg_5">
     <path d="m199.889,204.342l-34.1451,126.275m34.1451,-126.275l0,0l0,0z" class="fil1 str0" id="_52536272"/>
     <path d="m199.472,203.782l-97.5444,171.935m97.5444,-171.935l0,0l0,0z" class="fil1 str0" id="_52536096"/>
    </g>
   </g>
   <g id="_51588400">
    <g id="svg_6">
     <path d="m201.685,204.017l33.5091,126.447m-33.5091,-126.447l0,0l0,0z" class="fil1 str0" id="_52530568"/>
     <path d="m201.043,203.739l1.40365,197.674m-1.40365,-197.674l0,0l0,0z" class="fil1 str0" id="_51588112"/>
    </g>
   </g>
   <g id="_51561752">
    <g id="svg_7">
     <path d="m203.058,202.863l91.2921,93.6922m-91.2921,-93.6922l0,0l0,0z" class="fil1 str0" id="_51588752"/>
     <path d="m202.363,202.941l98.3057,171.503m-98.3057,-171.503l0,0l0,0z" class="fil1 str0" id="_51560512"/>
    </g>
   </g>
   <g id="_51590984">
    <g id="svg_8">
     <path d="m203.691,201.179l125.618,36.5007m-125.618,-36.5007l0,0l0,0z" class="fil1 str0" id="_51590224"/>
     <path d="m203.123,201.588l170.084,100.738m-170.084,-100.738l0,0l0,0z" class="fil1 str0" id="_51590552"/>
    </g>
   </g>
   <g id="_51270408">
    <g id="svg_9">
     <path d="m202.316,198.008l96.6046,-88.1971m-96.6046,88.1971l0,0l0,0z" class="fil1 str0" id="_51591256"/>
     <path d="m202.369,198.707l174.605,-92.6848m-174.605,92.6848l0,0l0,0z" class="fil1 str0" id="_51268448"/>
    </g>
   </g>
   <g id="_51272216">
    <g id="svg_10">
     <path d="m200.68,197.326l41.6173,-124.014m-41.6173,124.014l0,0l0,0z" class="fil1 str0" id="_51271064"/>
     <path d="m201.067,197.91l107.623,-165.815m-107.623,165.815l0,0l0,0z" class="fil1 str0" id="_51271392"/>
    </g>
   </g>
  </g>
  <text font-weight="bold" xml:space="preserve" text-anchor="start" font-family="sans-serif" font-size="92" id="svg_13" y="190" x="400" stroke-width="0" stroke="#000" fill="#000000">Loewe</text>
  <text font-weight="bold" xml:space="preserve" text-anchor="start" font-family="sans-serif" font-size="92" id="svg_14" y="280" x="400.34802" stroke-width="0" stroke="#000" fill="#000000">Tag</text>
 </g>
</svg>