<?xml version="1.0" encoding="UTF-8" standalone="no"?>
<!-- Created with Inkscape (http://www.inkscape.org/) -->

<svg
   width="2160"
   height="1080"
   viewBox="0 0 2160 1080"
   version="1.1"
   id="svg5"
   xml:space="preserve"
   inkscape:version="1.2.1 (9c6d41e410, 2022-07-14)"
   sodipodi:docname="LoeweTag_Wordmark_Paths.svg"
   xmlns:inkscape="http://www.inkscape.org/namespaces/inkscape"
   xmlns:sodipodi="http://sodipodi.sourceforge.net/DTD/sodipodi-0.dtd"
   xmlns="http://www.w3.org/2000/svg"
   xmlns:svg="http://www.w3.org/2000/svg"><sodipodi:namedview
     id="namedview7"
     pagecolor="#505050"
     bordercolor="#eeeeee"
     borderopacity="1"
     inkscape:showpageshadow="0"
     inkscape:pageopacity="0"
     inkscape:pagecheckerboard="0"
     inkscape:deskcolor="#505050"
     inkscape:document-units="px"
     showgrid="false"
     inkscape:zoom="0.65341904"
     inkscape:cx="829.48302"
     inkscape:cy="502.74017"
     inkscape:window-width="2400"
     inkscape:window-height="1261"
     inkscape:window-x="2391"
     inkscape:window-y="-9"
     inkscape:window-maximized="1"
     inkscape:current-layer="svg5" /><defs
     id="defs2" /><g
     id="g658"
     transform="matrix(3.0026637,0,0,3.0026637,485.35961,540)"
     style="fill:#000000;fill-opacity:1;stroke-width:0.333038"
     inkscape:label="g658"><g
       id="g329"
       style="stroke-width:0.333038;fill:#000000;fill-opacity:1"><path
         id="circle630"
         style="stroke-width:0.182755"
         d="M 45,0 A 45,45 0 0 1 0,45 45,45 0 0 1 -45,0 45,45 0 0 1 0,-45 45,45 0 0 1 45,0 Z" /><g
         id="use632"
         style="fill:#000000;fill-opacity:1;stroke-width:0.333038"><path
           d="M -2,0 -7,-135 H 7 L 2,0"
           stroke="none"
           id="path15060" /><path
           d="M -2,0 -5,-90 H 5 L 2,0"
           stroke="none"
           transform="rotate(15)"
           id="path15062" /></g><g
         id="use634"
         style="fill:#000000;fill-opacity:1;stroke-width:0.333038"
         transform="rotate(30)"><path
           d="M -2,0 -7,-135 H 7 L 2,0"
           stroke="none"
           id="path15066" /><path
           d="M -2,0 -5,-90 H 5 L 2,0"
           stroke="none"
           transform="rotate(15)"
           id="path15068" /></g><g
         id="use636"
         style="fill:#000000;fill-opacity:1;stroke-width:0.333038"
         transform="rotate(60)"><path
           d="M -2,0 -7,-135 H 7 L 2,0"
           stroke="none"
           id="path15072" /><path
           d="M -2,0 -5,-90 H 5 L 2,0"
           stroke="none"
           transform="rotate(15)"
           id="path15074" /></g><g
         id="use638"
         style="fill:#000000;fill-opacity:1;stroke-width:0.333038"
         transform="rotate(90)"><path
           d="M -2,0 -7,-135 H 7 L 2,0"
           stroke="none"
           id="path15078" /><path
           d="M -2,0 -5,-90 H 5 L 2,0"
           stroke="none"
           transform="rotate(15)"
           id="path15080" /></g><g
         id="use640"
         style="fill:#000000;fill-opacity:1;stroke-width:0.333038"
         transform="rotate(120)"><path
           d="M -2,0 -7,-135 H 7 L 2,0"
           stroke="none"
           id="path15084" /><path
           d="M -2,0 -5,-90 H 5 L 2,0"
           stroke="none"
           transform="rotate(15)"
           id="path15086" /></g><g
         id="use642"
         style="fill:#000000;fill-opacity:1;stroke-width:0.333038"
         transform="rotate(150)"><path
           d="M -2,0 -7,-135 H 7 L 2,0"
           stroke="none"
           id="path15090" /><path
           d="M -2,0 -5,-90 H 5 L 2,0"
           stroke="none"
           transform="rotate(15)"
           id="path15092" /></g><g
         id="use644"
         style="fill:#000000;fill-opacity:1;stroke-width:0.333038"
         transform="scale(-1)"><path
           d="M -2,0 -7,-135 H 7 L 2,0"
           stroke="none"
           id="path15096" /><path
           d="M -2,0 -5,-90 H 5 L 2,0"
           stroke="none"
           transform="rotate(15)"
           id="path15098" /></g><g
         id="use646"
         style="fill:#000000;fill-opacity:1;stroke-width:0.333038"
         transform="rotate(-150)"><path
           d="M -2,0 -7,-135 H 7 L 2,0"
           stroke="none"
           id="path15102" /><path
           d="M -2,0 -5,-90 H 5 L 2,0"
           stroke="none"
           transform="rotate(15)"
           id="path15104" /></g><g
         id="use648"
         style="fill:#000000;fill-opacity:1;stroke-width:0.333038"
         transform="rotate(-120)"><path
           d="M -2,0 -7,-135 H 7 L 2,0"
           stroke="none"
           id="path15108" /><path
           d="M -2,0 -5,-90 H 5 L 2,0"
           stroke="none"
           transform="rotate(15)"
           id="path15110" /></g><g
         id="use650"
         style="fill:#000000;fill-opacity:1;stroke-width:0.333038"
         transform="rotate(-90)"><path
           d="M -2,0 -7,-135 H 7 L 2,0"
           stroke="none"
           id="path15114" /><path
           d="M -2,0 -5,-90 H 5 L 2,0"
           stroke="none"
           transform="rotate(15)"
           id="path15116" /></g><g
         id="use652"
         style="fill:#000000;fill-opacity:1;stroke-width:0.333038"
         transform="rotate(-60)"><path
           d="M -2,0 -7,-135 H 7 L 2,0"
           stroke="none"
           id="path15120" /><path
           d="M -2,0 -5,-90 H 5 L 2,0"
           stroke="none"
           transform="rotate(15)"
           id="path15122" /></g><g
         id="use654"
         style="fill:#000000;fill-opacity:1;stroke-width:0.333038"
         transform="rotate(-30)"><path
           d="M -2,0 -7,-135 H 7 L 2,0"
           stroke="none"
           id="path15126" /><path
           d="M -2,0 -5,-90 H 5 L 2,0"
           stroke="none"
           transform="rotate(15)"
           id="path15128" /></g></g><path
       id="rect685"
       style="stroke-width:1.66517"
       d="M 0.64110762,-6.9684114 H 531.07525 V 7.0898561 H 0.64110762 Z" /></g><g
     aria-label="LOEWETAG"
     id="text1295"
     style="font-size:186.667px;font-family:Jellee;-inkscape-font-specification:'Jellee, Normal';stroke-width:5; fill:#000000;"><path
       d="m 1012.5111,476.06836 q -7.7474,0 -11.849,-4.01042 -4.01039,-4.10157 -4.01039,-11.84898 V 351.56292 q 0,-4.92188 2.3698,-9.02345 2.46089,-4.10157 6.56249,-6.47137 4.1016,-2.46094 8.9323,-2.46094 4.9219,0 9.0235,2.46094 4.1016,2.3698 6.4713,6.47137 2.461,4.10157 2.461,9.02345 v 95.15643 h 49.2188 q 3.9193,0 7.2917,2.00521 3.3724,1.91407 5.2865,5.28647 2.0052,3.3724 2.0052,7.29168 0,4.01042 -2.0052,7.47397 -1.9141,3.3724 -5.2865,5.37761 -3.3724,1.91407 -7.2917,1.91407 z"
       id="path15180" /><path
       d="m 1166.0921,479.07618 q -21.4193,0 -37.0053,-9.02346 -15.5859,-9.1146 -23.8802,-25.70317 -8.2031,-16.67972 -8.2031,-38.82819 0,-21.96619 8.3854,-38.55476 8.3854,-16.58857 24.0625,-25.70317 15.6771,-9.1146 37.0053,-9.1146 21.4193,0 37.0053,9.1146 15.586,9.02345 23.7891,25.61202 8.2943,16.49743 8.2943,38.64591 0,22.14847 -8.3855,38.73705 -8.2942,16.58857 -24.0625,25.70317 -15.6771,9.1146 -37.0053,9.1146 z m 0.1823,-28.43755 q 9.2969,0 16.3152,-4.7396 7.1093,-4.73959 11.1198,-14.85679 4.1015,-10.11721 4.1015,-25.52088 0,-15.40368 -4.1015,-25.42974 -4.0105,-10.1172 -11.1198,-14.8568 -7.0183,-4.73959 -16.3152,-4.73959 -9.2969,0 -16.4063,4.73959 -7.0182,4.7396 -11.1198,14.8568 -4.0104,10.02606 -4.0104,25.42974 0,15.40367 4.0104,25.52088 4.1016,10.1172 11.1198,14.85679 7.1094,4.7396 16.4063,4.7396 z"
       id="path15182" /><path
       d="m 1266.3527,476.06836 q -7.7474,0 -11.849,-4.01042 -4.1015,-4.10157 -4.1015,-11.84898 V 351.01605 q 0,-7.74741 4.1015,-11.75784 4.1016,-4.10157 11.849,-4.10157 h 68.633 q 3.8281,0 7.1093,2.00522 3.3724,1.91406 5.2865,5.28646 2.0052,3.28126 2.0052,7.29168 0,3.82814 -2.0052,7.10939 -1.9141,3.28126 -5.2865,5.28647 -3.2812,1.91407 -7.1093,1.91407 h -49.0366 v 27.43494 h 40.4688 q 3.737,0 6.9271,1.91407 3.2813,1.91406 5.1953,5.19532 1.9141,3.19011 1.9141,6.9271 0,3.82813 -1.9141,7.10938 -1.914,3.28126 -5.1953,5.19533 -3.1901,1.91406 -6.9271,1.91406 h -40.4688 v 27.43495 h 52.7735 q 3.8282,0 7.1094,2.00521 3.3724,1.91407 5.2865,5.19532 2.0052,3.28126 2.0052,7.10939 0,3.91928 -2.0052,7.29168 -1.9141,3.3724 -5.2865,5.37761 -3.2812,1.91407 -7.1094,1.91407 z"
       id="path15184" /><path
       d="m 1410.6368,477.5267 q -6.3802,0 -11.9401,-2.73438 -5.4687,-2.73438 -9.2969,-7.47398 -3.8281,-4.73959 -5.1042,-10.66408 l -23.3333,-103.45071 q -0.3646,-1.27604 -0.3646,-3.91928 0,-4.375 2.0052,-7.9297 2.0964,-3.64584 5.5599,-5.65105 3.4635,-2.09636 7.5651,-2.09636 6.2891,0 10.8464,3.64584 4.6484,3.64584 5.7422,9.1146 l 19.0495,89.23194 22.6042,-87.40902 q 1.6406,-6.65366 6.9271,-10.57293 5.3776,-4.01043 13.3985,-4.01043 8.0208,0 13.3073,4.01043 5.3776,3.91927 7.0182,10.57293 l 22.6042,87.40902 19.0496,-89.23194 q 1.0937,-5.46876 5.651,-9.1146 4.6484,-3.64584 10.9375,-3.64584 4.1016,0 7.5651,2.09636 3.4636,2.00521 5.4688,5.65105 2.0964,3.5547 2.0964,7.9297 0,2.64324 -0.3646,3.91928 l -23.3334,103.45071 q -1.276,5.92449 -5.1042,10.66408 -3.8281,4.7396 -9.388,7.47398 -5.4688,2.73438 -11.849,2.73438 -6.1979,0 -11.6667,-2.55209 -5.3776,-2.64324 -9.2057,-7.20054 -3.8282,-4.5573 -5.2865,-10.39064 l -17.5,-69.27096 -17.5912,69.27096 q -1.4583,5.83334 -5.2865,10.39064 -3.737,4.5573 -9.2057,7.20054 -5.3776,2.55209 -11.5756,2.55209 z"
       id="path15186" /><path
       d="m 1576.9783,476.06836 q -7.7474,0 -11.849,-4.01042 -4.1016,-4.10157 -4.1016,-11.84898 V 351.01605 q 0,-7.74741 4.1016,-11.75784 4.1016,-4.10157 11.849,-4.10157 h 68.6329 q 3.8282,0 7.1094,2.00522 3.3724,1.91406 5.2865,5.28646 2.0052,3.28126 2.0052,7.29168 0,3.82814 -2.0052,7.10939 -1.9141,3.28126 -5.2865,5.28647 -3.2812,1.91407 -7.1094,1.91407 h -49.0365 v 27.43494 h 40.4688 q 3.737,0 6.9271,1.91407 3.2813,1.91406 5.1953,5.19532 1.9141,3.19011 1.9141,6.9271 0,3.82813 -1.9141,7.10938 -1.914,3.28126 -5.1953,5.19533 -3.1901,1.91406 -6.9271,1.91406 h -40.4688 v 27.43495 h 52.7735 q 3.8282,0 7.1094,2.00521 3.3724,1.91407 5.2865,5.19532 2.0052,3.28126 2.0052,7.10939 0,3.91928 -2.0052,7.29168 -1.9141,3.3724 -5.2865,5.37761 -3.2812,1.91407 -7.1094,1.91407 z"
       id="path15188" /><path
       d="m 1727.0046,477.5267 q -4.8308,0 -8.9323,-2.3698 -4.1016,-2.46094 -6.5625,-6.56251 -2.3698,-4.10157 -2.3698,-8.93231 v -96.15903 h -26.8881 q -3.8281,0 -7.1094,-1.91407 -3.2812,-1.91406 -5.1953,-5.19532 -1.9141,-3.28125 -1.9141,-7.10939 0,-3.82813 1.9141,-7.01824 1.9141,-3.28125 5.1953,-5.19532 3.2813,-1.91407 7.1094,-1.91407 h 89.5965 q 3.8281,0 7.0183,1.91407 3.2812,1.91407 5.1953,5.19532 1.914,3.19011 1.914,7.01824 0,3.82814 -1.914,7.10939 -1.9141,3.28126 -5.1953,5.19532 -3.1902,1.91407 -7.0183,1.91407 h -26.8881 v 96.15903 q 0,4.83074 -2.4609,8.93231 -2.3698,4.10157 -6.4714,6.56251 -4.1015,2.3698 -9.0234,2.3698 z"
       id="path15190" /><path
       d="m 1790.2599,477.5267 q -4.6484,0 -8.5677,-2.27865 -3.8282,-2.27865 -6.1068,-6.19793 -2.2787,-3.91928 -2.2787,-8.47658 0,-2.55209 0.9115,-5.55991 l 35.0912,-101.62779 q 3.0078,-8.84116 10.7552,-14.30992 7.7475,-5.46876 17.9558,-5.46876 10.2084,0 17.9558,5.46876 7.8385,5.46876 10.8463,14.30992 l 35.0913,101.62779 q 0.9114,3.00782 0.9114,5.55991 0,4.5573 -2.2786,8.47658 -2.2787,3.91928 -6.198,6.19793 -3.9192,2.27865 -8.5677,2.27865 -5.651,0 -10.2083,-3.28126 -4.4662,-3.3724 -6.0157,-8.47658 l -6.1068,-19.59639 h -50.7683 l -6.1979,19.59639 q -1.5495,5.10418 -6.1068,8.47658 -4.4661,3.28126 -10.1172,3.28126 z m 31.1719,-58.97147 h 33.1772 l -8.9323,-28.52869 q -1.0026,-3.00782 -3.099,-10.66409 -2.0964,-7.65626 -3.4635,-13.03387 h -2.1875 q -1.0938,4.46615 -3.2813,12.57814 -2.1875,8.02085 -3.2813,11.11982 z"
       id="path15192" /><path
       d="m 1971.0936,479.07618 q -18.3204,0 -32.3568,-8.38543 -13.9454,-8.38544 -21.7839,-24.51828 -7.8386,-16.22399 -7.8386,-38.82819 0,-23.15109 8.8412,-40.10424 8.8411,-17.04431 24.6094,-26.06776 15.7682,-9.02345 36.185,-9.02345 16.5885,0 28.9844,5.46876 12.3958,5.46876 20.5078,15.22138 1.7318,2.09636 2.6433,4.92188 0.9114,2.82553 0.9114,5.7422 0,4.37501 -2.2786,8.20314 -2.1875,3.73699 -6.0157,6.01564 -3.7369,2.1875 -8.112,2.1875 -4.5573,0 -8.3854,-2.27865 -3.8281,-2.3698 -6.0156,-6.10678 -3.4636,-6.10678 -8.8412,-9.20575 -5.3776,-3.09896 -13.3984,-3.09896 -9.2058,0 -16.5886,4.83074 -7.3828,4.83073 -11.7579,15.13023 -4.2838,10.2995 -4.2838,25.97661 0,15.76826 4.375,26.1589 4.375,10.39065 11.6667,15.40368 7.2917,4.92188 16.224,4.92188 9.388,0 15.8594,-3.82813 6.5625,-3.82813 9.8437,-10.11721 3.2813,-6.28907 3.2813,-13.4896 v -1.54949 h -19.4141 q -3.2813,0 -6.1979,-1.64062 -2.8256,-1.73178 -4.5573,-4.5573 -1.6407,-2.91668 -1.6407,-6.28908 0,-3.28125 1.6407,-6.10678 1.7317,-2.82553 4.5573,-4.46615 2.9166,-1.73178 6.1979,-1.73178 h 36.185 q 7.7474,0 11.7578,4.10157 4.1016,4.01043 4.1016,11.75784 v 49.30998 q 0,3.91928 -2.0052,7.29168 -1.9141,3.28126 -5.2865,5.28647 -3.3724,1.91407 -7.2917,1.91407 -5.2865,0 -9.2969,-3.28126 -4.0104,-3.3724 -5.013,-8.47658 l -1.0026,-5.01303 h -0.9115 q -6.2891,9.29689 -15.1302,13.85419 -8.8412,4.46616 -22.9688,4.46616 z"
       id="path15194" /></g><g
     inkscape:groupmode="layer"
     id="layer1"
     inkscape:label="Logo" /></svg>
